<svg width="9" height="9" viewBox="0 0 9 9" fill="none" xmlns="http://www.w3.org/2000/svg">
<path d="M0.9 1.7268V0.6C0.9 0.480653 0.85259 0.366193 0.768198 0.281802C0.683807 0.197411 0.569347 0.15 0.45 0.15C0.330653 0.15 0.216193 0.197411 0.131802 0.281802C0.0474105 0.366193 0 0.480653 0 0.6V2.7C0 2.9484 0.2016 3.15 0.45 3.15H2.85C2.96935 3.15 3.08381 3.10259 3.1682 3.0182C3.25259 2.93381 3.3 2.81935 3.3 2.7C3.3 2.58065 3.25259 2.46619 3.1682 2.3818C3.08381 2.29741 2.96935 2.25 2.85 2.25H1.6356C2.352 1.416 3.3774 0.9 4.5 0.9C5.94 0.9 7.218 1.749 7.893 3.0258C7.9794 3.1896 8.145 3.3 8.3304 3.3C8.6526 3.3 8.8764 2.9802 8.7312 2.6922C7.9272 1.0974 6.3462 0 4.5 0C3.0564 0 1.7748 0.6714 0.9 1.7268ZM3.45 4.8C3.45005 4.71392 3.42542 4.62963 3.37902 4.55713C3.33261 4.48463 3.26639 4.42696 3.1882 4.39096C3.11001 4.35496 3.02313 4.34214 2.93788 4.35402C2.85262 4.3659 2.77257 4.40199 2.7072 4.458L1.6572 5.358C1.61229 5.39645 1.57539 5.44337 1.54861 5.49608C1.52183 5.54879 1.5057 5.60626 1.50113 5.66521C1.49656 5.72416 1.50365 5.78343 1.52198 5.83963C1.54032 5.89584 1.56955 5.94789 1.608 5.9928C1.68566 6.0835 1.79616 6.13965 1.91521 6.14887C1.97416 6.15344 2.03343 6.14635 2.08963 6.12802C2.14584 6.10968 2.19789 6.08045 2.2428 6.042L2.55 5.778V8.1C2.55 8.21935 2.59741 8.33381 2.6818 8.4182C2.76619 8.50259 2.88065 8.55 3 8.55C3.11935 8.55 3.23381 8.50259 3.3182 8.4182C3.40259 8.33381 3.45 8.21935 3.45 8.1V4.8ZM7.5 6.45C7.5 7.6098 7.125 8.55 6 8.55C4.875 8.55 4.5 7.6098 4.5 6.45C4.5 5.2902 4.875 4.35 6 4.35C7.125 4.35 7.5 5.2902 7.5 6.45ZM6.6 6.45C6.6 5.94 6.513 5.6106 6.4056 5.4378C6.37472 5.38253 6.32981 5.33638 6.2754 5.304C6.234 5.2812 6.153 5.25 6 5.25C5.847 5.25 5.766 5.2812 5.724 5.304C5.66981 5.33646 5.62511 5.3826 5.5944 5.4378C5.487 5.6106 5.4 5.94 5.4 6.45C5.4 6.96 5.487 7.2894 5.5944 7.4628C5.62536 7.51785 5.67027 7.56379 5.7246 7.596C5.766 7.6188 5.847 7.65 6 7.65C6.153 7.65 6.234 7.6188 6.276 7.596C6.33019 7.56354 6.37489 7.5174 6.4056 7.4622C6.513 7.2894 6.6 6.96 6.6 6.45Z" fill="#1A1A1A"/>
</svg>
