<svg viewBox="0 0 9 9" fill="none" xmlns="http://www.w3.org/2000/svg">
<path d="M7.87666 1.7268V0.6C7.87666 0.480653 7.92407 0.366193 8.00846 0.281802C8.09285 0.197411 8.20731 0.15 8.32666 0.15C8.44601 0.15 8.56047 0.197411 8.64486 0.281802C8.72925 0.366193 8.77666 0.480653 8.77666 0.6V2.7C8.77666 2.81935 8.72925 2.93381 8.64486 3.0182C8.56047 3.10259 8.44601 3.15 8.32666 3.15H5.92666C5.80731 3.15 5.69285 3.10259 5.60846 3.0182C5.52407 2.93381 5.47666 2.81935 5.47666 2.7C5.47666 2.58065 5.52407 2.46619 5.60846 2.3818C5.69285 2.29741 5.80731 2.25 5.92666 2.25H7.14166C6.42466 1.416 5.39986 0.9 4.27666 0.9C2.83726 0.9 1.55866 1.749 0.883661 3.0258C0.842817 3.10702 0.780519 3.17551 0.703521 3.22385C0.626522 3.27218 0.537761 3.29852 0.446861 3.3C0.124061 3.3 -0.099739 2.9802 0.044861 2.6922C0.850661 1.0974 2.43166 0 4.27726 0C5.72086 0 7.00186 0.6714 7.87666 1.7268ZM5.93746 8.55C7.06246 8.55 7.43746 7.6098 7.43746 6.45C7.43746 5.2902 7.06246 4.35 5.93746 4.35C4.81246 4.35 4.43746 5.2902 4.43746 6.45C4.43746 7.6098 4.81246 8.55 5.93746 8.55ZM6.34366 7.4628C6.3127 7.51785 6.26779 7.56379 6.21346 7.596C6.17146 7.6188 6.09106 7.65 5.93746 7.65C5.78446 7.65 5.70346 7.6188 5.66206 7.596C5.60765 7.56363 5.56274 7.51747 5.53186 7.4622C5.42506 7.2894 5.33746 6.96 5.33746 6.45C5.33746 5.94 5.42506 5.6106 5.53186 5.4378C5.56274 5.38253 5.60765 5.33638 5.66206 5.304C5.70406 5.2812 5.78446 5.25 5.93806 5.25C6.09106 5.25 6.17206 5.2812 6.21346 5.304C6.26787 5.33638 6.31278 5.38253 6.34366 5.4378C6.45046 5.6106 6.53746 5.94 6.53746 6.45C6.53746 6.96 6.45046 7.2894 6.34366 7.4628ZM3.38686 4.8C3.38692 4.71392 3.36228 4.62963 3.31588 4.55713C3.26947 4.48463 3.20325 4.42696 3.12506 4.39096C3.04687 4.35496 2.96 4.34214 2.87474 4.35402C2.78948 4.3659 2.70943 4.40199 2.64406 4.458L1.59406 5.358C1.50336 5.43574 1.44725 5.54632 1.43808 5.66542C1.42891 5.78453 1.46743 5.9024 1.54516 5.9931C1.6229 6.0838 1.73348 6.13991 1.85258 6.14908C1.97169 6.15825 2.08956 6.11974 2.18026 6.042L2.48686 5.778V8.1C2.48686 8.21935 2.53427 8.33381 2.61866 8.4182C2.70305 8.50259 2.81751 8.55 2.93686 8.55C3.05621 8.55 3.17067 8.50259 3.25506 8.4182C3.33945 8.33381 3.38686 8.21935 3.38686 8.1V4.8Z" fill="#1A1A1A"/>
</svg>
