<svg viewBox="0 0 14 14" fill="none" xmlns="http://www.w3.org/2000/svg">
<path d="M2.85105 2.526L2.82025 12.8613C2.82026 12.966 2.84882 13.0686 2.90284 13.1583C2.95686 13.2479 3.03429 13.3211 3.12682 13.37C3.21934 13.4188 3.32344 13.4416 3.42792 13.4357C3.53239 13.4298 3.63329 13.3955 3.71974 13.3366L11.1996 8.19116C11.5097 7.97791 11.5112 7.46229 11.2024 7.24662L3.75336 2.0567C3.66744 1.99663 3.5667 1.96125 3.46209 1.95441C3.35748 1.94757 3.25299 1.96953 3.15999 2.01791C3.06698 2.06628 2.989 2.13922 2.93454 2.2288C2.88007 2.31837 2.8512 2.42116 2.85105 2.526Z" fill="white"/>
</svg>
