<svg viewBox="0 0 11 11" fill="none" xmlns="http://www.w3.org/2000/svg">
<g clip-path="url(#clip0_10_137)">
<path d="M5.28631 1.76197V0.44043L3.52426 2.20248L5.28631 3.96453V2.64299C6.74441 2.64299 7.92939 3.82797 7.92939 5.28607C7.92939 5.73099 7.81926 6.15388 7.62103 6.51951L8.26418 7.16266C8.6211 6.60184 8.8106 5.95083 8.81041 5.28607C8.81041 3.339 7.23338 1.76197 5.28631 1.76197ZM5.28631 7.92915C3.82821 7.92915 2.64323 6.74417 2.64323 5.28607C2.64323 4.84115 2.75336 4.41826 2.95159 4.05263L2.30844 3.40949C1.95152 3.9703 1.76202 4.62131 1.76221 5.28607C1.76221 7.23314 3.33924 8.81017 5.28631 8.81017V10.1317L7.04836 8.36966L5.28631 6.60761V7.92915Z" fill="white"/>
</g>
<defs>
<clipPath id="clip0_10_137">
<rect width="10.5723" height="10.5723" fill="white"/>
</clipPath>
</defs>
</svg>
