<svg viewBox="0 0 10 10" fill="none" xmlns="http://www.w3.org/2000/svg">
<g clip-path="url(#clip0_10_133)">
<path fill-rule="evenodd" clip-rule="evenodd" d="M7.71913 1.77202C7.77489 1.71634 7.85046 1.68506 7.92926 1.68506C8.00805 1.68506 8.08363 1.71634 8.13938 1.77202L8.93231 2.56494C8.98799 2.62069 9.01927 2.69627 9.01927 2.77507C9.01927 2.85386 8.98799 2.92944 8.93231 2.98519L8.13938 3.77811C8.11216 3.80733 8.07933 3.83076 8.04286 3.84701C8.00639 3.86326 7.96701 3.872 7.92709 3.87271C7.88716 3.87341 7.8475 3.86607 7.81048 3.85111C7.77345 3.83616 7.73982 3.8139 7.71159 3.78566C7.68335 3.75743 7.66109 3.72379 7.64614 3.68677C7.63118 3.64974 7.62384 3.61009 7.62454 3.57016C7.62525 3.53024 7.63398 3.49086 7.65024 3.45439C7.66649 3.41791 7.68992 3.38509 7.71913 3.35786L8.00459 3.07241H7.29373C6.95912 3.07241 6.72917 3.07241 6.54838 3.09025C6.37394 3.1073 6.26848 3.13862 6.18086 3.18818C6.09364 3.23774 6.01197 3.31227 5.9077 3.45302C5.79986 3.59891 5.68092 3.79595 5.50886 4.08299L4.50859 5.75011C4.34604 6.02169 4.21243 6.24371 4.08517 6.41577C3.95235 6.59537 3.8124 6.73928 3.62725 6.84395C3.44211 6.94862 3.24665 6.99461 3.02463 7.01641C2.81134 7.03703 2.55245 7.03703 2.23567 7.03703H0.792952C0.71409 7.03703 0.638459 7.0057 0.582696 6.94994C0.526933 6.89417 0.495605 6.81854 0.495605 6.73968C0.495605 6.66082 0.526933 6.58519 0.582696 6.52943C0.638459 6.47366 0.71409 6.44233 0.792952 6.44233H2.2214C2.55602 6.44233 2.78596 6.44233 2.96675 6.42449C3.14119 6.40745 3.24665 6.37613 3.33427 6.32657C3.42149 6.27701 3.50316 6.20248 3.60743 6.06173C3.71527 5.91583 3.83381 5.71879 4.00627 5.43175L5.00654 3.76463C5.16909 3.49306 5.3027 3.27104 5.42997 3.09898C5.56278 2.91938 5.70273 2.77546 5.88788 2.6708C6.07303 2.56613 6.26848 2.52014 6.4905 2.49834C6.7038 2.47772 6.96268 2.47772 7.27946 2.47772H8.00419L7.71874 2.19227C7.66305 2.13652 7.63178 2.06094 7.63178 1.98214C7.63178 1.90335 7.66345 1.82777 7.71913 1.77202ZM3.06468 3.08827C2.98697 3.07321 2.89895 3.07202 2.64324 3.07202H0.792952C0.71409 3.07202 0.638459 3.04069 0.582696 2.98493C0.526933 2.92916 0.495605 2.85353 0.495605 2.77467C0.495605 2.69581 0.526933 2.62018 0.582696 2.56441C0.638459 2.50865 0.71409 2.47732 0.792952 2.47732H2.67218C2.88865 2.47732 3.03772 2.47732 3.17886 2.50508C3.49573 2.56671 3.78394 2.72981 3.99993 2.96973C4.09627 3.07677 4.17279 3.20443 4.28419 3.38998L4.29886 3.41456C4.31942 3.44805 4.33313 3.48528 4.33921 3.5241C4.34529 3.56292 4.34362 3.60257 4.33429 3.64074C4.32495 3.67891 4.30815 3.71485 4.28484 3.74649C4.26153 3.77812 4.23218 3.80483 4.19849 3.82505C4.1648 3.84528 4.12743 3.85862 4.08855 3.86432C4.04967 3.87002 4.01005 3.86795 3.97197 3.85824C3.9339 3.84853 3.89812 3.83137 3.86672 3.80775C3.83531 3.78413 3.8089 3.75452 3.78901 3.72063C3.65739 3.50099 3.6106 3.42645 3.55787 3.36778C3.42834 3.22353 3.25495 3.12541 3.06468 3.08827ZM5.31816 5.69144C5.35166 5.67128 5.3888 5.65793 5.42746 5.65214C5.46612 5.64635 5.50554 5.64824 5.54347 5.65771C5.5814 5.66717 5.61709 5.68402 5.6485 5.70729C5.67991 5.73056 5.70642 5.7598 5.72652 5.79333C5.85775 6.01297 5.90413 6.0875 5.95726 6.14618C6.0869 6.29049 6.25976 6.38842 6.45006 6.42568C6.52777 6.44075 6.61578 6.44194 6.8715 6.44194H8.00419L7.71874 6.15649C7.69035 6.12904 7.66771 6.09622 7.65215 6.05994C7.63658 6.02365 7.6284 5.98463 7.62807 5.94515C7.62775 5.90567 7.63529 5.86652 7.65026 5.82998C7.66523 5.79345 7.68732 5.76026 7.71525 5.73235C7.74318 5.70445 7.77639 5.68238 7.81294 5.66745C7.84949 5.65252 7.88865 5.64501 7.92813 5.64537C7.96761 5.64574 8.00663 5.65396 8.0429 5.66956C8.07917 5.68516 8.11197 5.70782 8.13938 5.73624L8.93231 6.52916C8.98799 6.58491 9.01927 6.66049 9.01927 6.73928C9.01927 6.81808 8.98799 6.89366 8.93231 6.94941L8.13938 7.74233C8.11216 7.77155 8.07933 7.79498 8.04286 7.81123C8.00639 7.82748 7.96701 7.83622 7.92709 7.83692C7.88716 7.83763 7.8475 7.83028 7.81048 7.81533C7.77345 7.80037 7.73982 7.77812 7.71159 7.74988C7.68335 7.72164 7.66109 7.68801 7.64614 7.65099C7.63118 7.61396 7.62384 7.5743 7.62454 7.53438C7.62525 7.49445 7.63398 7.45508 7.65024 7.41861C7.66649 7.38213 7.68992 7.3493 7.71913 7.32208L8.00459 7.03663H6.84256C6.62649 7.03663 6.47781 7.03663 6.33628 7.00888C6.0194 6.94724 5.73119 6.78414 5.5152 6.54423C5.41886 6.43718 5.34235 6.30952 5.23094 6.12398L5.21627 6.0994C5.19612 6.0659 5.18276 6.02876 5.17697 5.9901C5.17119 5.95144 5.17308 5.91202 5.18254 5.87409C5.192 5.83616 5.20885 5.80047 5.23213 5.76906C5.2554 5.73765 5.28463 5.71114 5.31816 5.69104" fill="white"/>
</g>
<defs>
<clipPath id="clip0_10_133">
<rect width="9.51508" height="9.51508" fill="white"/>
</clipPath>
</defs>
</svg>
