<svg viewBox="0 0 66 14" fill="none" xmlns="http://www.w3.org/2000/svg">
<path d="M0 6C0 2.68629 2.68629 0 6 0H60C63.3137 0 66 2.68629 66 6V8C66 11.3137 63.3137 14 60 14H6C2.68629 14 0 11.3137 0 8V6Z" fill="white"/>
<path d="M23.5078 10H23.0625L24.7422 4.72656H25.3203L26.9844 10H26.5156L26.0938 8.64062H23.9297L23.5078 10ZM24.7344 6.05469L24.0391 8.29688H25.9922L25.2969 6.04688C25.2812 5.98958 25.2526 5.88542 25.2109 5.73438C25.1172 5.41667 25.0521 5.19531 25.0156 5.07031C24.9792 5.1901 24.8854 5.51823 24.7344 6.05469ZM28.7812 9.71875C28.9323 9.71875 29.0729 9.6875 29.2031 9.625C29.5938 9.4375 29.7891 9.04427 29.7891 8.44531V6.5625C29.5339 6.4375 29.2682 6.375 28.9922 6.375C28.7474 6.375 28.5339 6.44792 28.3516 6.59375C27.9661 6.89583 27.7734 7.43229 27.7734 8.20312C27.7734 8.59896 27.8464 8.92969 27.9922 9.19531C28.1849 9.54427 28.4479 9.71875 28.7812 9.71875ZM29.7891 4.33594H30.1953V9.28125C30.1953 9.38542 30.2031 9.47135 30.2188 9.53906C30.2552 9.6901 30.3646 9.75521 30.5469 9.73438L30.5625 10.0469C30.4844 10.0573 30.4089 10.0625 30.3359 10.0625C30.0026 10.0469 29.8229 9.83333 29.7969 9.42188C29.5417 9.84375 29.1771 10.0573 28.7031 10.0625C28.4219 10.0625 28.1693 9.97135 27.9453 9.78906C27.5443 9.46094 27.3438 8.9375 27.3438 8.21875C27.3438 7.67188 27.4531 7.20573 27.6719 6.82031C27.9688 6.29427 28.3958 6.03125 28.9531 6.03125C29.224 6.03125 29.5026 6.08594 29.7891 6.19531V4.33594ZM32.5547 9.71875C32.7057 9.71875 32.8464 9.6875 32.9766 9.625C33.3672 9.4375 33.5625 9.04427 33.5625 8.44531V6.5625C33.3073 6.4375 33.0417 6.375 32.7656 6.375C32.5208 6.375 32.3073 6.44792 32.125 6.59375C31.7396 6.89583 31.5469 7.43229 31.5469 8.20312C31.5469 8.59896 31.6198 8.92969 31.7656 9.19531C31.9583 9.54427 32.2214 9.71875 32.5547 9.71875ZM33.5625 4.33594H33.9688V9.28125C33.9688 9.38542 33.9766 9.47135 33.9922 9.53906C34.0286 9.6901 34.138 9.75521 34.3203 9.73438L34.3359 10.0469C34.2578 10.0573 34.1823 10.0625 34.1094 10.0625C33.776 10.0469 33.5964 9.83333 33.5703 9.42188C33.3151 9.84375 32.9505 10.0573 32.4766 10.0625C32.1953 10.0625 31.9427 9.97135 31.7188 9.78906C31.3177 9.46094 31.1172 8.9375 31.1172 8.21875C31.1172 7.67188 31.2266 7.20573 31.4453 6.82031C31.7422 6.29427 32.1693 6.03125 32.7266 6.03125C32.9974 6.03125 33.276 6.08594 33.5625 6.19531V4.33594ZM40.125 8.64844C40.125 8.99219 40.0339 9.28385 39.8516 9.52344C39.5755 9.88281 39.1693 10.0625 38.6328 10.0625C38.1536 10.0625 37.7005 9.91146 37.2734 9.60938L37.4688 9.28906C37.875 9.55469 38.2708 9.6901 38.6562 9.69531C38.8385 9.69531 39.0052 9.66146 39.1562 9.59375C39.5104 9.42188 39.6875 9.11198 39.6875 8.66406C39.6875 8.4974 39.6536 8.34635 39.5859 8.21094C39.4714 7.98698 39.2135 7.77604 38.8125 7.57812C38.3854 7.36458 38.1354 7.23438 38.0625 7.1875C37.6146 6.90104 37.3906 6.51042 37.3906 6.01562C37.3906 5.66146 37.5104 5.35938 37.75 5.10938C38.0417 4.8125 38.4167 4.66406 38.875 4.66406C38.9844 4.66406 39.0911 4.67448 39.1953 4.69531C39.6536 4.78385 39.9661 5.02604 40.1328 5.42188L39.7891 5.60156C39.7734 5.57031 39.7552 5.53646 39.7344 5.5C39.5312 5.1875 39.2344 5.03125 38.8438 5.03125C38.6615 5.03125 38.4896 5.07292 38.3281 5.15625C37.9896 5.33333 37.8203 5.61719 37.8203 6.00781C37.8203 6.15365 37.849 6.28646 37.9062 6.40625C38.0104 6.61979 38.2604 6.82292 38.6562 7.01562C39.099 7.23958 39.3568 7.375 39.4297 7.42188C39.8932 7.71875 40.125 8.1276 40.125 8.64844ZM42.375 9.71875C42.6042 9.71875 42.8047 9.65625 42.9766 9.53125C43.3516 9.25521 43.5391 8.76302 43.5391 8.05469C43.5391 7.72135 43.4948 7.42708 43.4062 7.17188C43.2188 6.64062 42.8828 6.375 42.3984 6.375C42.1536 6.375 41.9375 6.45052 41.75 6.60156C41.3958 6.89323 41.2188 7.3776 41.2188 8.05469C41.2188 8.38281 41.263 8.67448 41.3516 8.92969C41.5443 9.45573 41.8854 9.71875 42.375 9.71875ZM42.4062 6.03125C42.7292 6.03125 43.0104 6.11198 43.25 6.27344C43.7292 6.60677 43.9688 7.20052 43.9688 8.05469C43.9688 8.51302 43.8828 8.91146 43.7109 9.25C43.4245 9.79167 42.9766 10.0625 42.3672 10.0625C42.0703 10.0625 41.8073 9.9974 41.5781 9.86719C41.0573 9.5599 40.7969 8.95573 40.7969 8.05469C40.7969 7.57552 40.8932 7.16406 41.0859 6.82031C41.3776 6.29427 41.8177 6.03125 42.4062 6.03125ZM47.8828 9.73438L47.8984 10.0391C47.8359 10.0547 47.7708 10.0625 47.7031 10.0625C47.349 10.0417 47.1536 9.79427 47.1172 9.32031V7.375C47.1172 7.22917 47.1016 7.09375 47.0703 6.96875C46.9661 6.5625 46.7214 6.35938 46.3359 6.35938C46.1641 6.35938 46.0026 6.40885 45.8516 6.50781C45.4974 6.74219 45.3203 7.16146 45.3203 7.76562V10H44.9141V6.09375H45.2891L45.2969 6.76562C45.5365 6.28125 45.901 6.03646 46.3906 6.03125C46.5573 6.03125 46.7083 6.05729 46.8438 6.10938C47.2969 6.27604 47.5234 6.67969 47.5234 7.32031V9.27344C47.5234 9.38802 47.5312 9.47917 47.5469 9.54688C47.5833 9.69271 47.6953 9.75521 47.8828 9.73438ZM49.9453 8.42969C50.0807 8.42969 50.2109 8.39844 50.3359 8.33594C50.6484 8.16406 50.8047 7.85938 50.8047 7.42188C50.8047 7.17708 50.7526 6.96354 50.6484 6.78125C50.4818 6.50521 50.2448 6.36719 49.9375 6.36719C49.8021 6.36719 49.6719 6.40104 49.5469 6.46875C49.2292 6.64583 49.0703 6.96354 49.0703 7.42188C49.0703 7.65104 49.1224 7.85417 49.2266 8.03125C49.3984 8.29688 49.638 8.42969 49.9453 8.42969ZM49.9453 6.03906C50.0547 6.03906 50.1641 6.05469 50.2734 6.08594L51.5547 6.03906V6.375L50.7812 6.35938C51.0521 6.61979 51.1901 6.97396 51.1953 7.42188C51.1953 7.75521 51.1068 8.04167 50.9297 8.28125C50.6901 8.59896 50.3594 8.75781 49.9375 8.75781C49.7812 8.75781 49.6354 8.73438 49.5 8.6875C49.4896 8.69271 49.474 8.69792 49.4531 8.70312C49.2292 8.78125 49.1172 8.91406 49.1172 9.10156C49.1172 9.13802 49.1224 9.17448 49.1328 9.21094C49.1849 9.36719 49.3099 9.44531 49.5078 9.44531L50.2109 9.4375C50.4766 9.4375 50.7083 9.47656 50.9062 9.55469C51.3177 9.72135 51.5234 10.0156 51.5234 10.4375C51.5234 10.6875 51.4479 10.9115 51.2969 11.1094C51.0052 11.474 50.5365 11.6562 49.8906 11.6562C49.5938 11.6562 49.3307 11.6068 49.1016 11.5078C48.6901 11.3307 48.4844 11.0417 48.4844 10.6406C48.4896 10.2969 48.7005 9.98438 49.1172 9.70312C49.112 9.69792 49.1016 9.69271 49.0859 9.6875C48.8672 9.57292 48.7578 9.40104 48.7578 9.17188C48.7839 8.91667 48.9323 8.70573 49.2031 8.53906C48.8594 8.29427 48.6849 7.92188 48.6797 7.42188C48.6797 7.07292 48.7682 6.77604 48.9453 6.53125C49.1901 6.20312 49.5234 6.03906 49.9453 6.03906ZM49.9062 11.3203C50.125 11.3203 50.3177 11.2943 50.4844 11.2422C50.9115 11.1068 51.125 10.8411 51.125 10.4453C51.125 10.3411 51.1016 10.2422 51.0547 10.1484C50.9089 9.88802 50.6198 9.76302 50.1875 9.77344L49.5547 9.78906H49.4531C49.0729 10.0234 48.8802 10.2943 48.875 10.6016C48.875 10.7161 48.9036 10.8203 48.9609 10.9141C49.1224 11.1849 49.4375 11.3203 49.9062 11.3203Z" fill="#222222"/>
<path d="M18 7.57143H14.1429V11H12.8571V7.57143H9V6.42857H12.8571V3H14.1429V6.42857H18V7.57143Z" fill="black"/>
</svg>
