<svg viewBox="0 0 18 17" fill="none" xmlns="http://www.w3.org/2000/svg">
<path d="M14.33 0.0525853L17.316 1.04859C17.4406 1.09008 17.5559 1.15572 17.6551 1.24175C17.7544 1.32778 17.8357 1.43252 17.8945 1.54999C17.9533 1.66745 17.9883 1.79535 17.9977 1.92636C18.007 2.05738 17.9905 2.18896 17.949 2.31359C17.9075 2.43821 17.8419 2.55344 17.7558 2.6527C17.6698 2.75196 17.5651 2.8333 17.4476 2.89208C17.3301 2.95086 17.2022 2.98592 17.0712 2.99528C16.9402 3.00463 16.8086 2.98808 16.684 2.94659L15 2.38459V13.4976C14.9998 14.2559 14.7534 14.9937 14.2977 15.5999C13.842 16.2061 13.2018 16.6479 12.4734 16.8588C11.7449 17.0697 10.9677 17.0383 10.2586 16.7693C9.54957 16.5003 8.94706 16.0084 8.54177 15.3674C8.13647 14.7264 7.95033 13.9711 8.01135 13.2153C8.07236 12.4594 8.37724 11.7437 8.8801 11.1761C9.38295 10.6084 10.0566 10.2194 10.7996 10.0677C11.5426 9.9159 12.3148 10.0096 13 10.3346V1.01159C13 0.321585 13.675 -0.165415 14.33 0.0525853ZM5 12.9976C5.26522 12.9976 5.51957 13.1029 5.70711 13.2905C5.89464 13.478 6 13.7324 6 13.9976C6 14.2628 5.89464 14.5172 5.70711 14.7047C5.51957 14.8922 5.26522 14.9976 5 14.9976H1C0.734784 14.9976 0.48043 14.8922 0.292893 14.7047C0.105357 14.5172 0 14.2628 0 13.9976C0 13.7324 0.105357 13.478 0.292893 13.2905C0.48043 13.1029 0.734784 12.9976 1 12.9976H5ZM7 6.99759C7.26522 6.99759 7.51957 7.10294 7.70711 7.29048C7.89464 7.47801 8 7.73237 8 7.99759C8 8.2628 7.89464 8.51716 7.70711 8.70469C7.51957 8.89223 7.26522 8.99759 7 8.99759H1C0.734784 8.99759 0.48043 8.89223 0.292893 8.70469C0.105357 8.51716 0 8.2628 0 7.99759C0 7.73237 0.105357 7.47801 0.292893 7.29048C0.48043 7.10294 0.734784 6.99759 1 6.99759H7ZM10 0.997585C10.2549 0.997868 10.5 1.09546 10.6854 1.27043C10.8707 1.4454 10.9822 1.68454 10.9972 1.93898C11.0121 2.19342 10.9293 2.44396 10.7657 2.63942C10.6021 2.83487 10.3701 2.96048 10.117 2.99059L10 2.99759H1C0.74512 2.9973 0.499968 2.89971 0.314632 2.72474C0.129296 2.54977 0.017765 2.31063 0.00282788 2.05619C-0.0121092 1.80175 0.0706746 1.55121 0.234265 1.35575C0.397855 1.1603 0.629904 1.03469 0.883 1.00459L1 0.997585H10Z" fill="white"/>
</svg>
