<svg width="18" height="18" viewBox="0 0 18 18" fill="none" xmlns="http://www.w3.org/2000/svg">
<path d="M9.945 2.47481C10.0624 2.39084 10.1997 2.33913 10.3434 2.32485C10.487 2.31057 10.6318 2.33421 10.7634 2.39342C10.8951 2.45262 11.0088 2.54532 11.0934 2.66226C11.178 2.77919 11.2305 2.91627 11.2455 3.05981L11.25 3.14531V14.8543C11.25 14.9986 11.2122 15.1405 11.1403 15.2656C11.0684 15.3907 10.9649 15.4948 10.8402 15.5675C10.7155 15.6401 10.5739 15.6788 10.4296 15.6796C10.2853 15.6804 10.1433 15.6433 10.0177 15.5721L9.94575 15.5256L5.01 11.9998H3C2.62157 11.9999 2.25708 11.857 1.97959 11.5997C1.7021 11.3424 1.53213 10.9897 1.50375 10.6123L1.5 10.4998V7.49981C1.49988 7.12138 1.6428 6.75688 1.90012 6.4794C2.15744 6.20191 2.51013 6.03194 2.8875 6.00356L3 5.99981H5.01L9.945 2.47481ZM14.7502 5.08706C15.3007 5.57948 15.7411 6.18251 16.0426 6.85674C16.3441 7.53097 16.5 8.26123 16.5 8.99981C16.5 9.73839 16.3441 10.4686 16.0426 11.1429C15.7411 11.8171 15.3007 12.4201 14.7502 12.9126C14.6771 12.9793 14.5913 13.0309 14.4981 13.0644C14.4048 13.0978 14.3059 13.1125 14.2069 13.1075C14.108 13.1025 14.011 13.0779 13.9216 13.0352C13.8322 12.9925 13.7521 12.9325 13.686 12.8587C13.62 12.7849 13.5691 12.6987 13.5366 12.6052C13.504 12.5116 13.4902 12.4125 13.4962 12.3136C13.5021 12.2147 13.5275 12.118 13.5711 12.029C13.6146 11.94 13.6753 11.8605 13.7498 11.7951C14.1431 11.4433 14.4577 11.0125 14.6732 10.5309C14.8886 10.0492 15 9.52747 15 8.99981C15 7.88981 14.5185 6.89231 13.7498 6.20456C13.6753 6.13916 13.6146 6.05966 13.5711 5.97066C13.5275 5.88165 13.5021 5.78491 13.4962 5.68601C13.4902 5.58711 13.504 5.48802 13.5366 5.39445C13.5691 5.30089 13.62 5.21471 13.686 5.1409C13.7521 5.06708 13.8322 5.00709 13.9216 4.96439C14.011 4.9217 14.108 4.89713 14.2069 4.89213C14.3059 4.88712 14.4048 4.90177 14.4981 4.93523C14.5913 4.96869 14.6771 5.02029 14.7502 5.08706ZM13.2502 6.76406C13.5647 7.04536 13.8162 7.38981 13.9885 7.77493C14.1608 8.16004 14.2499 8.57717 14.25 8.99906C14.2501 9.4212 14.1611 9.83861 13.9888 10.224C13.8165 10.6094 13.5649 10.9541 13.2502 11.2356C13.108 11.3619 12.9231 11.4294 12.7329 11.4245C12.5428 11.4197 12.3616 11.3427 12.226 11.2092C12.0905 11.0758 12.0107 10.8958 12.0029 10.7057C11.995 10.5157 12.0597 10.3297 12.1838 10.1856L12.2498 10.1181C12.5573 9.84206 12.75 9.44381 12.75 8.99981C12.7501 8.61589 12.603 8.24654 12.339 7.96781L12.2498 7.88156C12.1753 7.81616 12.1146 7.73666 12.0711 7.64766C12.0275 7.55865 12.0021 7.46191 11.9962 7.36301C11.9902 7.26411 12.004 7.16502 12.0366 7.07145C12.0691 6.97789 12.12 6.89171 12.186 6.8179C12.2521 6.74408 12.3322 6.68409 12.4216 6.64139C12.511 6.59869 12.608 6.57413 12.7069 6.56913C12.8059 6.56412 12.9048 6.57877 12.9981 6.61223C13.0913 6.64569 13.1771 6.69729 13.2502 6.76406Z" fill="black"/>
</svg>
